<svg width="10" height="16" viewBox="0 0 10 16" fill="none" xmlns="http://www.w3.org/2000/svg">
<path d="M9.2519 10.5661C9.2519 11.1901 9.0899 11.7781 8.7659 12.3301C8.4539 12.8701 7.9859 13.3201 7.3619 13.6801C6.7499 14.0281 6.0239 14.2321 5.1839 14.2921V15.7501H4.0319V14.2741C2.8319 14.1661 1.8659 13.8061 1.1339 13.1941C0.401899 12.5701 0.0238985 11.7301 -0.000101507 10.6741H2.6999C2.7719 11.5381 3.2159 12.0601 4.0319 12.2401V8.80208C3.1679 8.58608 2.4719 8.37008 1.9439 8.15408C1.4159 7.93808 0.959899 7.59008 0.575898 7.11008C0.191898 6.63008 -0.000101507 5.97608 -0.000101507 5.14808C-0.000101507 4.10408 0.371898 3.25208 1.1159 2.59208C1.8719 1.93208 2.8439 1.55408 4.0319 1.45808V8.11815e-05H5.1839V1.45808C6.3359 1.55408 7.2539 1.90208 7.9379 2.50208C8.6339 3.10208 9.0239 3.93008 9.1079 4.98608H6.3899C6.3539 4.63808 6.2279 4.33808 6.0119 4.08608C5.8079 3.82208 5.5319 3.63608 5.1839 3.52808V6.93008C6.0839 7.15808 6.7919 7.38008 7.3079 7.59608C7.8359 7.80008 8.2919 8.14208 8.6759 8.62208C9.0599 9.09008 9.2519 9.73808 9.2519 10.5661ZM2.6279 5.02208C2.6279 5.41808 2.7479 5.74208 2.9879 5.99408C3.2279 6.23408 3.5759 6.43208 4.0319 6.58808V3.47408C3.5999 3.53408 3.2579 3.69608 3.0059 3.96008C2.7539 4.22408 2.6279 4.57808 2.6279 5.02208ZM5.1839 12.2761C5.6399 12.1921 5.9939 12.0061 6.2459 11.7181C6.5099 11.4301 6.6419 11.0821 6.6419 10.6741C6.6419 10.2781 6.5159 9.96008 6.2639 9.72008C6.0119 9.48008 5.6519 9.28208 5.1839 9.12608V12.2761Z" fill="#000091"/>
</svg>
