<svg width="32" height="32" viewBox="0 0 32 32" fill="none" xmlns="http://www.w3.org/2000/svg">
<path d="M11.2504 27.0006C9.32665 29.1437 2.6554 29.4182 2.32915 29.1797L2.32465 29.1831L2.3224 29.1775L2.31678 29.1752L2.32128 29.1718C2.08165 28.8456 2.3629 22.18 4.5004 20.2506L11.2504 27.0006ZM31.0954 6.64709C30.3585 9.67334 29.2043 12.9921 24.7504 18.0006L23.8628 23.3432C23.709 24.2683 23.27 25.1222 22.6073 25.7856L17.1364 31.2621C17.0232 31.3766 16.8784 31.4548 16.7205 31.4866C16.5626 31.5185 16.3988 31.5025 16.2501 31.4408C16.1013 31.3791 15.9743 31.2745 15.8853 31.1402C15.7963 31.006 15.7493 30.8483 15.7504 30.6872V23.6785L7.8754 15.7506H0.813779C0.652968 15.7511 0.49563 15.7038 0.361753 15.6147C0.227876 15.5256 0.123503 15.3988 0.0618918 15.2502C0.000281054 15.1017 -0.015786 14.9382 0.0157318 14.7805C0.0472496 14.6228 0.12493 14.478 0.238904 14.3646L5.7154 8.89372C6.37868 8.23158 7.23213 7.79305 8.15665 7.63934L13.5004 6.75059C18.51 2.29672 21.8277 1.14247 24.8539 0.405592C26.1898 0.056549 27.5743 -0.0685229 28.9512 0.0354668C29.6392 0.0334901 30.3124 0.235071 30.8862 0.614842C31.2659 1.18857 31.4675 1.86181 31.4655 2.54984C31.5692 3.92672 31.4448 5.31126 31.0954 6.64709ZM27.0004 9.00059C27.0004 8.11058 26.7365 7.24055 26.242 6.50053C25.7475 5.7605 25.0447 5.18373 24.2225 4.84313C23.4002 4.50254 22.4954 4.41342 21.6225 4.58706C20.7496 4.76069 19.9478 5.18927 19.3184 5.81861C18.6891 6.44795 18.2605 7.24977 18.0869 8.12269C17.9132 8.9956 18.0023 9.9004 18.3429 10.7227C18.6835 11.5449 19.2603 12.2477 20.0003 12.7422C20.7404 13.2367 21.6104 13.5006 22.5004 13.5006C23.6939 13.5006 24.8385 13.0265 25.6824 12.1826C26.5263 11.3387 27.0004 10.1941 27.0004 9.00059Z" fill="white"/>
</svg>
