<svg width="48" height="48" viewBox="0 0 48 48" fill="none" xmlns="http://www.w3.org/2000/svg">
<rect width="48" height="48" rx="24" fill="#FF0000" fill-opacity="0.1"/>
<path d="M18.2511 29.7489C18.4185 29.9163 18.6378 30 18.8571 30C19.0764 30 19.2957 29.9163 19.4631 29.7489L24 25.2121L28.5368 29.7489C28.7042 29.9163 28.9235 30 29.1428 30C29.3621 30 29.5814 29.9163 29.7489 29.7489C30.0837 29.414 30.0837 28.8716 29.7489 28.5368L25.212 24L29.7489 19.4632C30.0837 19.1284 30.0837 18.5859 29.7489 18.2511C29.4145 17.9163 28.8712 17.9163 28.5368 18.2511L24 22.788L19.4632 18.2511C19.1288 17.9163 18.5855 17.9163 18.2511 18.2511C17.9163 18.5859 17.9163 19.1284 18.2511 19.4632L22.7879 24L18.2511 28.5368C17.9163 28.8716 17.9163 29.4141 18.2511 29.7489Z" fill="#0B0952" stroke="#0B0952" stroke-width="0.5"/>
</svg>
