<svg width="24" height="24" viewBox="0 0 24 24" fill="none" xmlns="http://www.w3.org/2000/svg">
<path d="M12.8715 6.32632C14.0713 6.52742 15.1613 7.09414 16.0315 7.9625C16.9016 8.83087 17.4649 9.91861 17.671 11.116M13.0547 2.40039C15.1888 2.76145 17.1352 3.77149 18.6831 5.3117C20.2311 6.85647 21.2386 8.79887 21.6004 10.9286M19.9333 19.4021C19.9333 19.4021 18.7747 20.5401 18.4907 20.8737C18.0282 21.3673 17.4832 21.6004 16.7688 21.6004C16.7001 21.6004 16.6268 21.6004 16.5581 21.5958C15.1979 21.509 13.9339 20.9788 12.9859 20.5264C10.3938 19.2741 8.11773 17.4962 6.22631 15.243C4.66463 13.3646 3.62046 11.6279 2.92893 9.76321C2.50302 8.62519 2.34731 7.73854 2.416 6.90217C2.4618 6.36744 2.66789 5.92412 3.048 5.54478L4.60968 3.9863C4.83408 3.77606 5.07223 3.6618 5.30579 3.6618C5.59431 3.6618 5.82788 3.83547 5.97443 3.98173C5.97901 3.9863 5.98359 3.99087 5.98817 3.99544C6.26753 4.25595 6.53315 4.5256 6.81251 4.81353C6.95448 4.95978 7.10103 5.10603 7.24758 5.25685L8.49784 6.50455C8.98329 6.98901 8.98329 7.4369 8.49784 7.92136C8.36503 8.0539 8.2368 8.18644 8.10399 8.31441C7.71929 8.70746 8.02149 8.40587 7.62306 8.76236C7.6139 8.7715 7.60474 8.77607 7.60016 8.78521C7.2063 9.17826 7.27958 9.56217 7.36201 9.82268C7.36659 9.83639 7.37117 9.8501 7.37575 9.86381C7.70091 10.6499 8.15888 11.3903 8.855 12.2724L8.85958 12.277C10.1236 13.8309 11.4563 15.042 12.9263 15.9698C13.1141 16.0886 13.3065 16.1846 13.4896 16.276C13.6545 16.3583 13.8102 16.436 13.943 16.5182C13.9614 16.5274 13.9797 16.5411 13.998 16.5502C14.1537 16.6279 14.3003 16.6645 14.4514 16.6645C14.8315 16.6645 15.0696 16.4268 15.1475 16.3491L16.0452 15.4533C16.2009 15.2979 16.4482 15.1105 16.7367 15.1105C17.0207 15.1105 17.2542 15.2887 17.3962 15.4441C17.4008 15.4487 17.4008 15.4487 17.4054 15.4533L19.9288 17.9715C20.4005 18.4377 19.9333 19.4021 19.9333 19.4021Z" stroke="#0B0952" stroke-width="2" stroke-linecap="round" stroke-linejoin="round"/>
</svg>
