<svg width="36" height="36" viewBox="0 0 36 36" fill="none" xmlns="http://www.w3.org/2000/svg">
<path d="M8.09998 7.99414V5.29414C8.09998 4.30003 8.90587 3.49414 9.89998 3.49414H27C27.9941 3.49414 28.8 4.30003 28.8 5.29414V12.4941M3.60139 28.9056L3.60152 15.2192C3.60153 13.8483 3.60102 11.8957 3.60059 10.4819C3.60028 9.48749 4.40628 8.68232 5.40066 8.68232H13.978L18.1255 13.1128H30.5999C31.5941 13.1128 32.4 13.9187 32.3999 14.9128L32.3995 28.9058C32.3994 30.894 30.7877 32.5057 28.7995 32.5057L7.20138 32.5057C5.21315 32.5057 3.60137 30.8939 3.60139 28.9056Z" stroke="#00BE93" stroke-width="2" stroke-linecap="round" stroke-linejoin="round"/>
</svg>
