<svg width="16" height="20" viewBox="0 0 16 20" fill="none" xmlns="http://www.w3.org/2000/svg">
<path d="M2.125 1.25C1.89294 1.25 1.67038 1.34219 1.50628 1.50628C1.34219 1.67038 1.25 1.89294 1.25 2.125V18.75H3V16.125C3 15.8266 3.11853 15.5405 3.3295 15.3295C3.54048 15.1185 3.82663 15 4.125 15H11.875C12.1734 15 12.4595 15.1185 12.6705 15.3295C12.8815 15.5405 13 15.8266 13 16.125V18.75H14.75V9.625C14.75 9.39294 14.6578 9.17038 14.4937 9.00628C14.3296 8.84219 14.1071 8.75 13.875 8.75H11.375C11.03 8.75 10.75 8.47 10.75 8.125V2.125C10.75 2.01009 10.7274 1.89631 10.6834 1.79015C10.6394 1.68399 10.575 1.58753 10.4937 1.50628C10.4125 1.42503 10.316 1.36058 10.2098 1.31661C10.1037 1.27263 9.98991 1.25 9.875 1.25H2.125ZM0.625 20C0.28 20 0 19.72 0 19.375V2.125C0 1.56141 0.223883 1.02091 0.622398 0.622398C1.02091 0.223883 1.56141 0 2.125 0H9.875C10.4386 0 10.9791 0.223883 11.3776 0.622398C11.7761 1.02091 12 1.56141 12 2.125V7.5H13.875C14.4386 7.5 14.9791 7.72388 15.3776 8.1224C15.7761 8.52091 16 9.06141 16 9.625V19.375C16 19.72 15.72 20 15.375 20H0.625ZM4.25 18.75H7.375V16.25H4.25V18.75ZM8.625 18.75H11.75V16.25H8.625V18.75ZM5 5C5 5.26522 4.89464 5.51957 4.70711 5.70711C4.51957 5.89464 4.26522 6 4 6C3.73478 6 3.48043 5.89464 3.29289 5.70711C3.10536 5.51957 3 5.26522 3 5C3 4.73478 3.10536 4.48043 3.29289 4.29289C3.48043 4.10536 3.73478 4 4 4C4.26522 4 4.51957 4.10536 4.70711 4.29289C4.89464 4.48043 5 4.73478 5 5ZM4 9.5C4.26522 9.5 4.51957 9.39464 4.70711 9.20711C4.89464 9.01957 5 8.76522 5 8.5C5 8.23478 4.89464 7.98043 4.70711 7.79289C4.51957 7.60536 4.26522 7.5 4 7.5C3.73478 7.5 3.48043 7.60536 3.29289 7.79289C3.10536 7.98043 3 8.23478 3 8.5C3 8.76522 3.10536 9.01957 3.29289 9.20711C3.48043 9.39464 3.73478 9.5 4 9.5ZM5 12C5 12.2652 4.89464 12.5196 4.70711 12.7071C4.51957 12.8946 4.26522 13 4 13C3.73478 13 3.48043 12.8946 3.29289 12.7071C3.10536 12.5196 3 12.2652 3 12C3 11.7348 3.10536 11.4804 3.29289 11.2929C3.48043 11.1054 3.73478 11 4 11C4.26522 11 4.51957 11.1054 4.70711 11.2929C4.89464 11.4804 5 11.7348 5 12ZM8 6C8.26522 6 8.51957 5.89464 8.70711 5.70711C8.89464 5.51957 9 5.26522 9 5C9 4.73478 8.89464 4.48043 8.70711 4.29289C8.51957 4.10536 8.26522 4 8 4C7.73478 4 7.48043 4.10536 7.29289 4.29289C7.10536 4.48043 7 4.73478 7 5C7 5.26522 7.10536 5.51957 7.29289 5.70711C7.48043 5.89464 7.73478 6 8 6ZM9 8.5C9 8.76522 8.89464 9.01957 8.70711 9.20711C8.51957 9.39464 8.26522 9.5 8 9.5C7.73478 9.5 7.48043 9.39464 7.29289 9.20711C7.10536 9.01957 7 8.76522 7 8.5C7 8.23478 7.10536 7.98043 7.29289 7.79289C7.48043 7.60536 7.73478 7.5 8 7.5C8.26522 7.5 8.51957 7.60536 8.70711 7.79289C8.89464 7.98043 9 8.23478 9 8.5ZM8 13C8.26522 13 8.51957 12.8946 8.70711 12.7071C8.89464 12.5196 9 12.2652 9 12C9 11.7348 8.89464 11.4804 8.70711 11.2929C8.51957 11.1054 8.26522 11 8 11C7.73478 11 7.48043 11.1054 7.29289 11.2929C7.10536 11.4804 7 11.7348 7 12C7 12.2652 7.10536 12.5196 7.29289 12.7071C7.48043 12.8946 7.73478 13 8 13ZM13 12C13 12.2652 12.8946 12.5196 12.7071 12.7071C12.5196 12.8946 12.2652 13 12 13C11.7348 13 11.4804 12.8946 11.2929 12.7071C11.1054 12.5196 11 12.2652 11 12C11 11.7348 11.1054 11.4804 11.2929 11.2929C11.4804 11.1054 11.7348 11 12 11C12.2652 11 12.5196 11.1054 12.7071 11.2929C12.8946 11.4804 13 11.7348 13 12Z" fill="#00795E"/>
</svg>
