<svg width="48" height="48" viewBox="0 0 48 48" fill="none" xmlns="http://www.w3.org/2000/svg">
<rect width="48" height="48" rx="24" fill="#FFA500" fill-opacity="0.1"/>
<path d="M27.5588 27.1987C28.0827 27.3733 28.649 27.0902 28.8237 26.5662C28.9983 26.0423 28.7152 25.476 28.1912 25.3013L27.875 26.25L27.5588 27.1987ZM24.5 25.125H23.5C23.5 25.5554 23.7754 25.9376 24.1838 26.0737L24.5 25.125ZM25.5 20.4209C25.5 19.8686 25.0523 19.4209 24.5 19.4209C23.9477 19.4209 23.5 19.8686 23.5 20.4209H24.5H25.5ZM27.875 26.25L28.1912 25.3013L24.8162 24.1763L24.5 25.125L24.1838 26.0737L27.5588 27.1987L27.875 26.25ZM24.5 25.125H25.5V20.4209H24.5H23.5V25.125H24.5ZM33.5 24H32.5C32.5 28.4183 28.9183 32 24.5 32V33V34C30.0228 34 34.5 29.5228 34.5 24H33.5ZM24.5 33V32C20.0817 32 16.5 28.4183 16.5 24H15.5H14.5C14.5 29.5228 18.9772 34 24.5 34V33ZM15.5 24H16.5C16.5 19.5817 20.0817 16 24.5 16V15V14C18.9772 14 14.5 18.4772 14.5 24H15.5ZM24.5 15V16C28.9183 16 32.5 19.5817 32.5 24H33.5H34.5C34.5 18.4772 30.0228 14 24.5 14V15Z" fill="#0B0952"/>
</svg>
