<svg width="24" height="24" viewBox="0 0 24 24" fill="none" xmlns="http://www.w3.org/2000/svg">
<path d="M9.00027 19.5004C7.71777 20.9291 3.27027 21.1121 3.05277 20.9531L3.04977 20.9554L3.04827 20.9516L3.04452 20.9501L3.04752 20.9479C2.88777 20.7304 3.07527 16.2866 4.50027 15.0004L9.00027 19.5004ZM22.2303 5.93139C21.739 7.94889 20.9695 10.1614 18.0003 13.5004L17.4085 17.0621C17.306 17.6788 17.0134 18.2481 16.5715 18.6904L12.9243 22.3414C12.8488 22.4177 12.7522 22.4699 12.647 22.4911C12.5417 22.5123 12.4325 22.5017 12.3334 22.4605C12.2342 22.4194 12.1495 22.3496 12.0902 22.2601C12.0309 22.1707 11.9996 22.0655 12.0003 21.9581V17.2856L6.75027 12.0004H2.04252C1.93531 12.0007 1.83042 11.9692 1.74117 11.9098C1.65192 11.8504 1.58234 11.7659 1.54126 11.6668C1.50019 11.5678 1.48948 11.4588 1.51049 11.3537C1.5315 11.2485 1.58329 11.152 1.65927 11.0764L5.31027 7.42914C5.75245 6.98772 6.32142 6.69536 6.93777 6.59289L10.5003 6.00039C13.84 3.03114 16.0518 2.26164 18.0693 1.77039C18.9599 1.5377 19.8829 1.45432 20.8008 1.52364C21.2595 1.52233 21.7083 1.65671 22.0908 1.90989C22.344 2.29238 22.4783 2.74121 22.477 3.19989C22.5461 4.11782 22.4632 5.04084 22.2303 5.93139ZM19.5003 7.50039C19.5003 6.90705 19.3243 6.32703 18.9947 5.83368C18.665 5.34034 18.1965 4.95582 17.6483 4.72876C17.1001 4.50169 16.4969 4.44228 15.915 4.55804C15.3331 4.67379 14.7985 4.95952 14.3789 5.37907C13.9594 5.79863 13.6737 6.33318 13.5579 6.91512C13.4422 7.49707 13.5016 8.10027 13.7286 8.64845C13.9557 9.19662 14.3402 9.66516 14.8336 9.9948C15.3269 10.3244 15.9069 10.5004 16.5003 10.5004C17.2959 10.5004 18.059 10.1843 18.6216 9.62172C19.1842 9.05911 19.5003 8.29604 19.5003 7.50039Z" fill="#0B0952"/>
</svg>
